<?xml version="1.0" encoding="UTF-8"?>
<!DOCTYPE svg PUBLIC "-//W3C//DTD SVG 1.1//EN" "http://www.w3.org/Graphics/SVG/1.1/DTD/svg11.dtd">
<svg xmlns="http://www.w3.org/2000/svg" version="1.1" width="1413px" height="437px" style="shape-rendering:geometricPrecision; text-rendering:geometricPrecision; image-rendering:optimizeQuality; fill-rule:evenodd; clip-rule:evenodd" xmlns:xlink="http://www.w3.org/1999/xlink">
<g><path style="opacity:0.965" fill="#ef0000" d="M 149.5,-0.5 C 150.5,-0.5 151.5,-0.5 152.5,-0.5C 152.662,1.5273 152.495,3.5273 152,5.5C 142.706,24.2232 140.04,43.8899 144,64.5C 146.793,82.1273 156.96,92.1273 174.5,94.5C 172.984,98.134 171.818,101.801 171,105.5C 194.535,118.574 204.201,138.574 200,165.5C 183.48,281.476 124.647,368.309 23.5,426C 16.197,429.82 8.86371,433.32 1.5,436.5C 1.16667,436.5 0.833333,436.5 0.5,436.5C 0.5,435.833 0.166667,435.5 -0.5,435.5C -0.5,434.5 -0.5,433.5 -0.5,432.5C 12.0407,410.431 24.8741,388.431 38,366.5C 59.8988,325.137 75.2321,281.47 84,235.5C 85.876,216.3 83.5427,197.633 77,179.5C 71.3914,167.283 66.0581,154.95 61,142.5C 59.4272,135.807 61.5939,130.641 67.5,127C 73.4777,122.687 79.1443,118.02 84.5,113C 82.4258,108.852 80.0925,104.852 77.5,101C 94.5947,99.8867 106.095,91.3867 112,75.5C 116.533,57.035 121.533,38.7016 127,20.5C 132.132,10.8654 139.632,3.86537 149.5,-0.5 Z M 144.5,126.5 C 158.758,123.881 169.258,128.881 176,141.5C 177.862,151.811 177.862,162.144 176,172.5C 162.373,250.781 125.706,315.781 66,367.5C 73.2104,350.725 80.2104,333.725 87,316.5C 94.5503,295.183 100.884,273.516 106,251.5C 109.689,229.041 109.023,206.707 104,184.5C 101.736,153.961 115.236,134.627 144.5,126.5 Z"/></g>
<g><path style="opacity:0.956" fill="#000000" d="M 741.5,181.5 C 760.503,181.333 779.503,181.5 798.5,182C 815.065,184.234 823.565,193.734 824,210.5C 824.667,228.5 824.667,246.5 824,264.5C 823.269,282.23 814.103,291.73 796.5,293C 778.833,293.667 761.167,293.667 743.5,293C 729.125,291.955 720.292,284.455 717,270.5C 716.333,248.5 716.333,226.5 717,204.5C 719.807,191.03 727.973,183.363 741.5,181.5 Z M 743.5,204.5 C 761.17,204.333 778.836,204.5 796.5,205C 797.931,205.465 799.097,206.299 800,207.5C 801.641,226.41 801.974,245.41 801,264.5C 800.226,266.939 798.726,268.773 796.5,270C 779.167,270.667 761.833,270.667 744.5,270C 742.714,269.215 741.214,268.049 740,266.5C 738.36,247.924 738.026,229.257 739,210.5C 739.979,208.032 741.479,206.032 743.5,204.5 Z"/></g>
<g><path style="opacity:0.982" fill="#000000" d="M 245.5,183.5 C 281.5,183.5 317.5,183.5 353.5,183.5C 353.5,190.833 353.5,198.167 353.5,205.5C 339.167,205.5 324.833,205.5 310.5,205.5C 310.5,234.167 310.5,262.833 310.5,291.5C 303.167,291.5 295.833,291.5 288.5,291.5C 288.5,262.833 288.5,234.167 288.5,205.5C 274.167,205.5 259.833,205.5 245.5,205.5C 245.5,198.167 245.5,190.833 245.5,183.5 Z"/></g>
<g><path style="opacity:0.982" fill="#000000" d="M 363.5,183.5 C 399.5,183.5 435.5,183.5 471.5,183.5C 471.5,190.833 471.5,198.167 471.5,205.5C 442.833,205.5 414.167,205.5 385.5,205.5C 385.5,212.5 385.5,219.5 385.5,226.5C 406.833,226.5 428.167,226.5 449.5,226.5C 449.5,233.833 449.5,241.167 449.5,248.5C 428.167,248.5 406.833,248.5 385.5,248.5C 385.5,255.5 385.5,262.5 385.5,269.5C 414.167,269.5 442.833,269.5 471.5,269.5C 471.5,276.833 471.5,284.167 471.5,291.5C 435.5,291.5 399.5,291.5 363.5,291.5C 363.5,255.5 363.5,219.5 363.5,183.5 Z"/></g>
<g><path style="opacity:0.969" fill="#000000" d="M 480.5,183.5 C 488.167,183.5 495.833,183.5 503.5,183.5C 503.5,197.833 503.5,212.167 503.5,226.5C 524.5,226.5 545.5,226.5 566.5,226.5C 566.5,212.167 566.5,197.833 566.5,183.5C 573.833,183.5 581.167,183.5 588.5,183.5C 588.5,219.5 588.5,255.5 588.5,291.5C 581.167,291.5 573.833,291.5 566.5,291.5C 566.5,277.167 566.5,262.833 566.5,248.5C 545.5,248.5 524.5,248.5 503.5,248.5C 503.5,262.833 503.5,277.167 503.5,291.5C 495.833,291.5 488.167,291.5 480.5,291.5C 480.5,255.5 480.5,219.5 480.5,183.5 Z"/></g>
<g><path style="opacity:0.965" fill="#000000" d="M 598.5,183.5 C 606.174,183.334 613.841,183.5 621.5,184C 642.333,208.167 663.167,232.333 684,256.5C 684.5,232.169 684.667,207.836 684.5,183.5C 691.833,183.5 699.167,183.5 706.5,183.5C 706.5,219.5 706.5,255.5 706.5,291.5C 698.826,291.666 691.159,291.5 683.5,291C 662.667,266.833 641.833,242.667 621,218.5C 620.5,242.831 620.333,267.164 620.5,291.5C 613.167,291.5 605.833,291.5 598.5,291.5C 598.5,255.5 598.5,219.5 598.5,183.5 Z"/></g>
<g><path style="opacity:0.968" fill="#000000" d="M 857.5,183.5 C 885.5,183.5 913.5,183.5 941.5,183.5C 941.5,190.833 941.5,198.167 941.5,205.5C 914.449,205.035 887.449,205.535 860.5,207C 858.951,208.214 857.785,209.714 857,211.5C 856.333,228.833 856.333,246.167 857,263.5C 857.833,265.667 859.333,267.167 861.5,268C 888.124,269.455 914.79,269.955 941.5,269.5C 941.5,276.833 941.5,284.167 941.5,291.5C 914.165,291.667 886.831,291.5 859.5,291C 843.884,289.05 835.384,280.216 834,264.5C 833.075,244.462 833.408,224.462 835,204.5C 838.193,192.805 845.693,185.805 857.5,183.5 Z"/></g>
<g><path style="opacity:0.979" fill="#000000" d="M 951.5,183.5 C 987.5,183.5 1023.5,183.5 1059.5,183.5C 1059.5,190.833 1059.5,198.167 1059.5,205.5C 1030.83,205.5 1002.17,205.5 973.5,205.5C 973.5,212.5 973.5,219.5 973.5,226.5C 995.167,226.5 1016.83,226.5 1038.5,226.5C 1038.5,233.833 1038.5,241.167 1038.5,248.5C 1016.83,248.5 995.167,248.5 973.5,248.5C 973.5,255.5 973.5,262.5 973.5,269.5C 1002.17,269.5 1030.83,269.5 1059.5,269.5C 1059.5,276.833 1059.5,284.167 1059.5,291.5C 1023.5,291.5 987.5,291.5 951.5,291.5C 951.5,255.5 951.5,219.5 951.5,183.5 Z"/></g>
<g><path style="opacity:0.959" fill="#000000" d="M 1069.5,183.5 C 1076.84,183.334 1084.17,183.5 1091.5,184C 1112.69,207.552 1133.52,231.386 1154,255.5C 1154.5,231.502 1154.67,207.502 1154.5,183.5C 1162.17,183.5 1169.83,183.5 1177.5,183.5C 1177.5,219.5 1177.5,255.5 1177.5,291.5C 1169.83,291.666 1162.16,291.5 1154.5,291C 1133.67,266.833 1112.83,242.667 1092,218.5C 1091.5,242.831 1091.33,267.164 1091.5,291.5C 1084.17,291.5 1076.83,291.5 1069.5,291.5C 1069.5,255.5 1069.5,219.5 1069.5,183.5 Z"/></g>
<g><path style="opacity:0.977" fill="#000000" d="M 1186.5,183.5 C 1222.5,183.5 1258.5,183.5 1294.5,183.5C 1294.5,190.833 1294.5,198.167 1294.5,205.5C 1280.17,205.5 1265.83,205.5 1251.5,205.5C 1251.5,234.167 1251.5,262.833 1251.5,291.5C 1244.17,291.5 1236.83,291.5 1229.5,291.5C 1229.5,262.833 1229.5,234.167 1229.5,205.5C 1215.17,205.5 1200.83,205.5 1186.5,205.5C 1186.5,198.167 1186.5,190.833 1186.5,183.5 Z"/></g>
<g><path style="opacity:0.968" fill="#000000" d="M 1412.5,209.5 C 1412.5,217.5 1412.5,225.5 1412.5,233.5C 1409.54,250.611 1399.2,259.444 1381.5,260C 1391.7,270.369 1402.03,280.535 1412.5,290.5C 1412.5,290.833 1412.5,291.167 1412.5,291.5C 1401.83,291.667 1391.16,291.5 1380.5,291C 1370.17,280.667 1359.83,270.333 1349.5,260C 1341.84,259.5 1334.17,259.334 1326.5,259.5C 1326.5,270.167 1326.5,280.833 1326.5,291.5C 1319.17,291.5 1311.83,291.5 1304.5,291.5C 1304.5,255.5 1304.5,219.5 1304.5,183.5C 1332.5,183.333 1360.5,183.5 1388.5,184C 1402.57,186.898 1410.57,195.398 1412.5,209.5 Z M 1326.5,205.5 C 1346.22,205.049 1365.89,205.549 1385.5,207C 1387.05,208.214 1388.22,209.714 1389,211.5C 1389.67,218.167 1389.67,224.833 1389,231.5C 1388.17,233.667 1386.67,235.167 1384.5,236C 1365.17,236.5 1345.84,236.667 1326.5,236.5C 1326.5,226.167 1326.5,215.833 1326.5,205.5 Z"/></g>
</svg>
