<?xml version="1.0" encoding="UTF-8"?>
<!DOCTYPE svg PUBLIC "-//W3C//DTD SVG 1.1//EN" "http://www.w3.org/Graphics/SVG/1.1/DTD/svg11.dtd">
<svg xmlns="http://www.w3.org/2000/svg" version="1.1" width="2046px" height="437px" style="shape-rendering:geometricPrecision; text-rendering:geometricPrecision; image-rendering:optimizeQuality; fill-rule:evenodd; clip-rule:evenodd" xmlns:xlink="http://www.w3.org/1999/xlink">
<g><path style="opacity:0.965" fill="#ef0000" d="M 149.5,-0.5 C 150.5,-0.5 151.5,-0.5 152.5,-0.5C 152.662,1.5273 152.495,3.5273 152,5.5C 142.706,24.2232 140.04,43.8899 144,64.5C 146.793,82.1273 156.96,92.1273 174.5,94.5C 172.984,98.134 171.818,101.801 171,105.5C 194.535,118.574 204.201,138.574 200,165.5C 183.48,281.476 124.647,368.309 23.5,426C 16.197,429.82 8.86371,433.32 1.5,436.5C 1.16667,436.5 0.833333,436.5 0.5,436.5C 0.5,435.833 0.166667,435.5 -0.5,435.5C -0.5,434.5 -0.5,433.5 -0.5,432.5C 12.0407,410.431 24.8741,388.431 38,366.5C 59.8988,325.137 75.2321,281.47 84,235.5C 85.876,216.3 83.5427,197.633 77,179.5C 71.3914,167.283 66.0581,154.95 61,142.5C 59.4272,135.807 61.5939,130.641 67.5,127C 73.4777,122.687 79.1443,118.02 84.5,113C 82.4258,108.852 80.0925,104.852 77.5,101C 94.5947,99.8867 106.095,91.3867 112,75.5C 116.533,57.035 121.533,38.7016 127,20.5C 132.132,10.8654 139.632,3.86537 149.5,-0.5 Z M 144.5,126.5 C 158.758,123.881 169.258,128.881 176,141.5C 177.862,151.811 177.862,162.144 176,172.5C 162.373,250.781 125.706,315.781 66,367.5C 73.2104,350.725 80.2104,333.725 87,316.5C 94.5503,295.183 100.884,273.516 106,251.5C 109.689,229.041 109.023,206.707 104,184.5C 101.736,153.961 115.236,134.627 144.5,126.5 Z"/></g>
<g><path style="opacity:0.923" fill="#fefffe" d="M 964.5,137.5 C 995.835,137.333 1027.17,137.5 1058.5,138C 1075.52,142.684 1086.02,153.518 1090,170.5C 1090.67,202.167 1090.67,233.833 1090,265.5C 1088.52,270.084 1087.35,274.751 1086.5,279.5C 1085.5,279.5 1084.5,279.5 1083.5,279.5C 1083.51,281.308 1083.01,282.975 1082,284.5C 1077.1,289.082 1072.27,292.916 1067.5,296C 1064.06,296.692 1060.73,297.692 1057.5,299C 1026.83,299.667 996.167,299.667 965.5,299C 948.079,294.249 937.579,283.082 934,265.5C 933.333,233.833 933.333,202.167 934,170.5C 935.737,164.291 938.071,158.291 941,152.5C 947.285,145.862 954.785,141.362 963.5,139C 964.056,138.617 964.389,138.117 964.5,137.5 Z M 974.5,171.5 C 999.502,171.333 1024.5,171.5 1049.5,172C 1052.2,172.966 1054.03,174.8 1055,177.5C 1055.67,204.833 1055.67,232.167 1055,259.5C 1053.83,262 1052,263.833 1049.5,265C 1024.5,265.667 999.5,265.667 974.5,265C 970.624,263.957 968.291,261.457 967.5,257.5C 966.333,231.506 966.167,205.506 967,179.5C 968.327,175.675 970.827,173.008 974.5,171.5 Z"/></g>
<g><path style="opacity:0.92" fill="#fefffe" d="M 252.5,139.5 C 304.833,139.5 357.167,139.5 409.5,139.5C 409.5,150.833 409.5,162.167 409.5,173.5C 388.833,173.5 368.167,173.5 347.5,173.5C 347.5,214.833 347.5,256.167 347.5,297.5C 336.167,297.5 324.833,297.5 313.5,297.5C 313.17,256.261 313.503,215.094 314.5,174C 293.836,173.5 273.169,173.333 252.5,173.5C 252.5,162.167 252.5,150.833 252.5,139.5 Z"/></g>
<g><path style="opacity:0.921" fill="#fefffe" d="M 422.5,139.5 C 474.834,139.333 527.168,139.5 579.5,140C 580.833,151 580.833,162 579.5,173C 538.167,173.333 496.833,173.667 455.5,174C 456.833,183 456.833,192 455.5,201C 486.498,201.5 517.498,201.667 548.5,201.5C 548.5,212.833 548.5,224.167 548.5,235.5C 517.833,235.5 487.167,235.5 456.5,235.5C 456.818,244.751 456.485,253.917 455.5,263C 496.833,263.333 538.167,263.667 579.5,264C 580.653,274.757 580.82,285.59 580,296.5C 527.572,297.497 475.072,297.831 422.5,297.5C 422.5,244.833 422.5,192.167 422.5,139.5 Z"/></g>
<g><path style="opacity:0.911" fill="#fefffe" d="M 592.5,139.5 C 603.833,139.5 615.167,139.5 626.5,139.5C 626.5,160.167 626.5,180.833 626.5,201.5C 656.502,201.667 686.502,201.5 716.5,201C 715.507,180.576 715.173,160.076 715.5,139.5C 726.833,139.5 738.167,139.5 749.5,139.5C 749.5,192.167 749.5,244.833 749.5,297.5C 738.252,297.821 727.085,297.487 716,296.5C 715.174,276.26 715.341,256.094 716.5,236C 686.502,235.5 656.502,235.333 626.5,235.5C 626.5,256.167 626.5,276.833 626.5,297.5C 614.919,297.821 603.419,297.488 592,296.5C 591.172,244.096 591.338,191.763 592.5,139.5 Z"/></g>
<g><path style="opacity:0.906" fill="#fefffe" d="M 762.5,139.5 C 773.838,139.333 785.172,139.5 796.5,140C 826.331,174.498 856.164,208.998 886,243.5C 886.5,208.835 886.667,174.168 886.5,139.5C 898.081,139.179 909.581,139.512 921,140.5C 921.829,192.541 921.662,244.541 920.5,296.5C 909.181,297.666 897.848,297.832 886.5,297C 856.547,262.256 826.714,227.423 797,192.5C 796.5,227.498 796.333,262.498 796.5,297.5C 785.167,297.5 773.833,297.5 762.5,297.5C 762.5,244.833 762.5,192.167 762.5,139.5 Z"/></g>
<g><path style="opacity:0.916" fill="#fefffe" d="M 1139.5,139.5 C 1179.83,139.5 1220.17,139.5 1260.5,139.5C 1260.5,150.833 1260.5,162.167 1260.5,173.5C 1221.12,173.024 1181.79,173.524 1142.5,175C 1139.29,177.731 1137.79,181.231 1138,185.5C 1137.33,207.5 1137.33,229.5 1138,251.5C 1137.62,256.247 1139.46,259.747 1143.5,262C 1182.45,263.476 1221.45,263.976 1260.5,263.5C 1260.5,274.833 1260.5,286.167 1260.5,297.5C 1220.83,297.667 1181.17,297.5 1141.5,297C 1127.56,295.388 1116.39,288.554 1108,276.5C 1106.54,272.2 1105.21,267.867 1104,263.5C 1103.33,233.167 1103.33,202.833 1104,172.5C 1105.59,163.576 1109.75,156.076 1116.5,150C 1119.63,147.694 1122.79,145.527 1126,143.5C 1127.36,144.258 1128.53,143.758 1129.5,142C 1132.99,141.262 1136.32,140.429 1139.5,139.5 Z"/></g>
<g><path style="opacity:0.909" fill="#fefffe" d="M 1273.5,139.5 C 1326.17,139.5 1378.83,139.5 1431.5,139.5C 1431.5,150.833 1431.5,162.167 1431.5,173.5C 1389.83,173.333 1348.17,173.5 1306.5,174C 1307.83,183 1307.83,192 1306.5,201C 1337.84,201.167 1369.17,201.667 1400.5,202.5C 1401.79,213.487 1401.79,224.487 1400.5,235.5C 1369.16,235.333 1337.83,235.5 1306.5,236C 1307.83,245 1307.83,254 1306.5,263C 1348.17,263.5 1389.83,263.667 1431.5,263.5C 1431.5,274.833 1431.5,286.167 1431.5,297.5C 1378.83,297.667 1326.17,297.5 1273.5,297C 1272.17,244.5 1272.17,192 1273.5,139.5 Z"/></g>
<g><path style="opacity:0.912" fill="#fefffe" d="M 1553.5,279.5 C 1528.73,250.914 1503.9,222.58 1479,194.5C 1478.67,228.5 1478.33,262.5 1478,296.5C 1466.91,297.487 1455.75,297.821 1444.5,297.5C 1444.5,244.833 1444.5,192.167 1444.5,139.5C 1455.51,139.333 1466.51,139.5 1477.5,140C 1507.33,174.493 1537.16,208.993 1567,243.5C 1567.5,208.835 1567.67,174.168 1567.5,139.5C 1579.08,139.179 1590.58,139.512 1602,140.5C 1602.67,192.5 1602.67,244.5 1602,296.5C 1590.56,297.82 1579.06,297.82 1567.5,296.5C 1562.78,290.789 1558.11,285.123 1553.5,279.5 Z"/></g>
<g><path style="opacity:0.913" fill="#fefffe" d="M 1613.5,139.5 C 1666.17,139.5 1718.83,139.5 1771.5,139.5C 1771.5,150.833 1771.5,162.167 1771.5,173.5C 1750.83,173.5 1730.17,173.5 1709.5,173.5C 1709.5,214.833 1709.5,256.167 1709.5,297.5C 1698.25,297.821 1687.09,297.487 1676,296.5C 1675.17,255.596 1675.34,214.762 1676.5,174C 1655.5,173.5 1634.5,173.333 1613.5,173.5C 1613.5,162.167 1613.5,150.833 1613.5,139.5 Z"/></g>
<g><path style="opacity:0.927" fill="#fefffe" d="M 1784.5,139.5 C 1824.83,139.333 1865.17,139.5 1905.5,140C 1916.36,141.676 1925.86,146.843 1934,155.5C 1937.23,160.024 1939.4,165.024 1940.5,170.5C 1941.83,187.167 1941.83,203.833 1940.5,220.5C 1936.9,233.938 1928.56,243.105 1915.5,248C 1909.52,249.093 1903.52,250.093 1897.5,251C 1911.7,265.529 1926.2,279.696 1941,293.5C 1941.49,294.793 1941.66,296.127 1941.5,297.5C 1926.16,297.667 1910.83,297.5 1895.5,297C 1880.88,282.008 1866.21,267.008 1851.5,252C 1840.17,251.5 1828.84,251.333 1817.5,251.5C 1817.5,266.833 1817.5,282.167 1817.5,297.5C 1806.5,297.5 1795.5,297.5 1784.5,297.5C 1784.5,244.833 1784.5,192.167 1784.5,139.5 Z M 1817.5,173.5 C 1844.84,173.333 1872.17,173.5 1899.5,174C 1903.24,175.445 1905.74,177.611 1907,180.5C 1907.67,190.5 1907.67,200.5 1907,210.5C 1905.5,212 1904,213.5 1902.5,215C 1874.2,216.449 1845.87,216.949 1817.5,216.5C 1817.5,202.167 1817.5,187.833 1817.5,173.5 Z"/></g>
<g><path style="opacity:0.004" fill="#fefffe" d="M 1553.5,279.5 C 1552.83,280.167 1552.83,280.167 1553.5,279.5 Z"/></g>
</svg>
